<svg xmlns="http://www.w3.org/2000/svg" xmlns:xlink="http://www.w3.org/1999/xlink" width="312" height="312" fill="none" xmlns:v="https://vecta.io/nano"><style><![CDATA[.B{stroke-linejoin:round}.C{stroke:#000}.D{stroke-width:3}.E{stroke-width:4}.F{color-interpolation-filters:sRGB}.G{flood-opacity:0}.H{stroke:#ff1bfd}]]></style><rect x="97.184" y="-2" width="286.613" height="172.979" rx="51.927" transform="rotate(44.01 97.184 -2)" fill="url(#F)"/><rect x="58" y="160.594" width="233.181" height="172.979" rx="51.927" transform="rotate(304.75 58 160.594)" fill="url(#G)"/><rect x="155.126" y="273.022" width="249.601" height="155.236" rx="51.927" transform="rotate(224.795 155.126 273.022)" fill="url(#H)"/><g filter="url(#A)"><path d="M128.444 180.092h-24.888c-1.964 0-3.556 1.592-3.556 3.556v24.89c0 1.963 1.592 3.555 3.556 3.555h24.888c1.964 0 3.556-1.592 3.556-3.555v-24.89c0-1.964-1.592-3.556-3.556-3.556z" fill="#fff"/><path d="M128.444 178.592h-24.888c-2.793 0-5.056 2.264-5.056 5.056v24.89c0 2.792 2.263 5.055 5.056 5.055h24.888c2.793 0 5.056-2.263 5.056-5.055v-24.89c0-2.792-2.263-5.056-5.056-5.056z" class="B C D"/></g><path d="M103.556 182.092h24.888c.86 0 1.556.697 1.556 1.556v24.89c0 .86-.696 1.555-1.556 1.555h-24.888c-.86 0-1.556-.696-1.556-1.555v-24.89c0-.86.696-1.556 1.556-1.556z" class="B E H"/><g filter="url(#B)"><use xlink:href="#I" fill="#f6b9e0"/><use xlink:href="#J" class="B C D"/></g><use xlink:href="#K" class="B E H"/><g filter="url(#C)"><use xlink:href="#I" x="40" fill="#f7a5d9"/><use xlink:href="#J" x="40" class="B C D"/></g><use xlink:href="#K" x="40" class="B E H"/><g filter="url(#D)"><use xlink:href="#I" x="40" y="-40" fill="#ef6abf"/><use xlink:href="#J" x="40" y="-40" class="B C D"/></g><use xlink:href="#K" x="40" y="-40" class="B E H"/><g filter="url(#E)"><path d="M208.537 100h-24.89c-1.964 0-3.556 1.592-3.556 3.556v24.888c0 1.964 1.592 3.556 3.556 3.556h24.89c1.963 0 3.555-1.592 3.555-3.556v-24.888c0-1.964-1.592-3.556-3.555-3.556z" fill="#f04db6"/><path d="M208.537 98.5h-24.89c-2.792 0-5.056 2.263-5.056 5.056v24.888c0 2.793 2.264 5.056 5.056 5.056h24.89c2.792 0 5.055-2.263 5.055-5.056v-24.888c0-2.793-2.263-5.056-5.055-5.056z" class="B C D"/></g><path d="M183.648 102h24.89c.86 0 1.555.696 1.555 1.556v24.888c0 .86-.696 1.556-1.555 1.556h-24.89c-.86 0-1.556-.696-1.556-1.556v-24.888c0-.86.697-1.556 1.556-1.556z" stroke="#fe1cfb" class="B E"/><defs><filter id="A" x="73" y="153.092" width="86" height="86" filterUnits="userSpaceOnUse" class="F"><feFlood result="A" class="G"/><feColorMatrix in="SourceAlpha" values="0 0 0 0 0 0 0 0 0 0 0 0 0 0 0 0 0 0 127 0"/><feOffset/><feGaussianBlur stdDeviation="12"/><feColorMatrix values="0 0 0 0 0.933333 0 0 0 0 0.109804 0 0 0 0 0.913725 0 0 0 0.45 0"/><feBlend in2="A"/><feBlend in="SourceGraphic"/></filter><filter id="B" x="73" y="113" width="86" height="86" filterUnits="userSpaceOnUse" class="F"><feFlood result="A" class="G"/><feColorMatrix in="SourceAlpha" values="0 0 0 0 0 0 0 0 0 0 0 0 0 0 0 0 0 0 127 0"/><feOffset/><feGaussianBlur stdDeviation="12"/><feColorMatrix values="0 0 0 0 0.933333 0 0 0 0 0.109804 0 0 0 0 0.913725 0 0 0 0.45 0"/><feBlend in2="A"/><feBlend in="SourceGraphic"/></filter><filter id="C" x="113" y="113" width="86" height="86" filterUnits="userSpaceOnUse" class="F"><feFlood result="A" class="G"/><feColorMatrix in="SourceAlpha" values="0 0 0 0 0 0 0 0 0 0 0 0 0 0 0 0 0 0 127 0"/><feOffset/><feGaussianBlur stdDeviation="12"/><feColorMatrix values="0 0 0 0 0.933333 0 0 0 0 0.109804 0 0 0 0 0.913725 0 0 0 0.45 0"/><feBlend in2="A"/><feBlend in="SourceGraphic"/></filter><filter id="D" x="113" y="73" width="86" height="86" filterUnits="userSpaceOnUse" class="F"><feFlood result="A" class="G"/><feColorMatrix in="SourceAlpha" values="0 0 0 0 0 0 0 0 0 0 0 0 0 0 0 0 0 0 127 0"/><feOffset/><feGaussianBlur stdDeviation="12"/><feColorMatrix values="0 0 0 0 0.933333 0 0 0 0 0.109804 0 0 0 0 0.913725 0 0 0 0.45 0"/><feBlend in2="A"/><feBlend in="SourceGraphic"/></filter><filter id="E" x="153.092" y="73" width="86" height="86" filterUnits="userSpaceOnUse" class="F"><feFlood result="A" class="G"/><feColorMatrix in="SourceAlpha" values="0 0 0 0 0 0 0 0 0 0 0 0 0 0 0 0 0 0 127 0"/><feOffset/><feGaussianBlur stdDeviation="12"/><feColorMatrix values="0 0 0 0 0.933333 0 0 0 0 0.109804 0 0 0 0 0.913725 0 0 0 0.45 0"/><feBlend in2="A"/><feBlend in="SourceGraphic"/></filter><radialGradient id="F" cx="0" cy="0" r="1" gradientUnits="userSpaceOnUse" gradientTransform="translate(240.491 84.4895) rotate(90) scale(86.4895 143.307)"><stop stop-color="#a81bff" stop-opacity=".53"/><stop offset="1" stop-opacity="0"/></radialGradient><radialGradient id="G" cx="0" cy="0" r="1" gradientUnits="userSpaceOnUse" gradientTransform="translate(174.59 247.083) rotate(90) scale(86.4895 116.59)"><stop stop-color="#a81bff" stop-opacity=".16"/><stop offset="1" stop-opacity="0"/></radialGradient><radialGradient id="H" cx="0" cy="0" r="1" gradientUnits="userSpaceOnUse" gradientTransform="translate(279.926 350.64) rotate(90) scale(77.6181 124.8)"><stop stop-color="#a81bff" stop-opacity=".28"/><stop offset="1" stop-opacity="0"/></radialGradient><path id="I" d="M128.444 140h-24.888c-1.964 0-3.556 1.592-3.556 3.556v24.888c0 1.964 1.592 3.556 3.556 3.556h24.888c1.964 0 3.556-1.592 3.556-3.556v-24.888c0-1.964-1.592-3.556-3.556-3.556z"/><path id="J" d="M128.444 138.5h-24.888c-2.793 0-5.056 2.263-5.056 5.056v24.888c0 2.793 2.263 5.056 5.056 5.056h24.888c2.793 0 5.056-2.263 5.056-5.056v-24.888c0-2.793-2.263-5.056-5.056-5.056z"/><path id="K" d="M103.556 142h24.888c.86 0 1.556.696 1.556 1.556v24.888c0 .86-.696 1.556-1.556 1.556h-24.888c-.86 0-1.556-.696-1.556-1.556v-24.888c0-.86.696-1.556 1.556-1.556z"/></defs></svg>