<svg xmlns="http://www.w3.org/2000/svg" xmlns:xlink="http://www.w3.org/1999/xlink" width="312" height="312" fill="none" xmlns:v="https://vecta.io/nano"><style><![CDATA[.B{stroke-linejoin:round}.C{stroke:#000}.D{stroke-width:3}.E{stroke-width:4}.F{color-interpolation-filters:sRGB}.G{flood-opacity:0}.H{stroke:#ff1bfd}]]></style><g filter="url(#A)"><path d="M128.444 178.092h-24.888c-1.964 0-3.556 1.592-3.556 3.556v24.89c0 1.963 1.592 3.555 3.556 3.555h24.888c1.964 0 3.556-1.592 3.556-3.555v-24.89c0-1.964-1.592-3.556-3.556-3.556z" fill="url(#F)"/><path d="M128.444 176.592h-24.888c-2.793 0-5.056 2.264-5.056 5.056v24.89c0 2.792 2.263 5.055 5.056 5.055h24.888c2.793 0 5.056-2.263 5.056-5.055v-24.89c0-2.792-2.263-5.056-5.056-5.056z" class="B C D"/></g><path d="M103.556 180.092h24.888c.86 0 1.556.697 1.556 1.556v24.89c0 .86-.696 1.555-1.556 1.555h-24.888c-.86 0-1.556-.696-1.556-1.555v-24.89c0-.86.696-1.556 1.556-1.556z" class="B E H"/><g filter="url(#B)"><use xlink:href="#K" fill="url(#G)"/><use xlink:href="#L" class="B C D"/></g><use xlink:href="#M" class="B E H"/><g filter="url(#C)"><use xlink:href="#K" x="40" fill="url(#H)"/><use xlink:href="#L" x="40" class="B C D"/></g><use xlink:href="#M" x="40" class="B E H"/><g filter="url(#D)"><use xlink:href="#K" x="40" y="-40" fill="url(#I)"/><use xlink:href="#L" x="40" y="-40" class="B C D"/></g><use xlink:href="#M" x="40" y="-40" class="B E H"/><g filter="url(#E)"><path d="M208.537 98h-24.89c-1.964 0-3.556 1.592-3.556 3.556v24.888c0 1.964 1.592 3.556 3.556 3.556h24.89c1.963 0 3.555-1.592 3.555-3.556v-24.888c0-1.964-1.592-3.556-3.555-3.556z" fill="url(#J)"/><path d="M208.537 96.5h-24.89c-2.792 0-5.056 2.263-5.056 5.056v24.888c0 2.793 2.264 5.056 5.056 5.056h24.89c2.792 0 5.055-2.263 5.055-5.056v-24.888c0-2.793-2.263-5.056-5.055-5.056z" class="B C D"/></g><path d="M183.648 100h24.89c.86 0 1.555.696 1.555 1.556v24.888c0 .86-.696 1.556-1.555 1.556h-24.89c-.86 0-1.556-.696-1.556-1.556v-24.888c0-.86.697-1.556 1.556-1.556z" stroke="#fe1cfb" class="B E"/><defs><filter id="A" x="73" y="151.092" width="86" height="86" filterUnits="userSpaceOnUse" class="F"><feFlood result="A" class="G"/><feColorMatrix in="SourceAlpha" values="0 0 0 0 0 0 0 0 0 0 0 0 0 0 0 0 0 0 127 0"/><feOffset/><feGaussianBlur stdDeviation="12"/><feColorMatrix values="0 0 0 0 0.933333 0 0 0 0 0.109804 0 0 0 0 0.913725 0 0 0 0.45 0"/><feBlend in2="A"/><feBlend in="SourceGraphic"/></filter><filter id="B" x="73" y="111" width="86" height="86" filterUnits="userSpaceOnUse" class="F"><feFlood result="A" class="G"/><feColorMatrix in="SourceAlpha" values="0 0 0 0 0 0 0 0 0 0 0 0 0 0 0 0 0 0 127 0"/><feOffset/><feGaussianBlur stdDeviation="12"/><feColorMatrix values="0 0 0 0 0.933333 0 0 0 0 0.109804 0 0 0 0 0.913725 0 0 0 0.45 0"/><feBlend in2="A"/><feBlend in="SourceGraphic"/></filter><filter id="C" x="113" y="111" width="86" height="86" filterUnits="userSpaceOnUse" class="F"><feFlood result="A" class="G"/><feColorMatrix in="SourceAlpha" values="0 0 0 0 0 0 0 0 0 0 0 0 0 0 0 0 0 0 127 0"/><feOffset/><feGaussianBlur stdDeviation="12"/><feColorMatrix values="0 0 0 0 0.933333 0 0 0 0 0.109804 0 0 0 0 0.913725 0 0 0 0.45 0"/><feBlend in2="A"/><feBlend in="SourceGraphic"/></filter><filter id="D" x="113" y="71" width="86" height="86" filterUnits="userSpaceOnUse" class="F"><feFlood result="A" class="G"/><feColorMatrix in="SourceAlpha" values="0 0 0 0 0 0 0 0 0 0 0 0 0 0 0 0 0 0 127 0"/><feOffset/><feGaussianBlur stdDeviation="12"/><feColorMatrix values="0 0 0 0 0.933333 0 0 0 0 0.109804 0 0 0 0 0.913725 0 0 0 0.45 0"/><feBlend in2="A"/><feBlend in="SourceGraphic"/></filter><filter id="E" x="153.092" y="71" width="86" height="86" filterUnits="userSpaceOnUse" class="F"><feFlood result="A" class="G"/><feColorMatrix in="SourceAlpha" values="0 0 0 0 0 0 0 0 0 0 0 0 0 0 0 0 0 0 127 0"/><feOffset/><feGaussianBlur stdDeviation="12"/><feColorMatrix values="0 0 0 0 0.933333 0 0 0 0 0.109804 0 0 0 0 0.913725 0 0 0 0.45 0"/><feBlend in2="A"/><feBlend in="SourceGraphic"/></filter><linearGradient id="F" x1="213.5" y1="97.5" x2="100" y2="210" xlink:href="#N"><stop stop-color="#980071"/><stop offset=".5" stop-color="#e716c1"/><stop offset="1" stop-color="#ffd0f5"/></linearGradient><linearGradient id="G" x1="211.5" y1="98.5" x2="103.5" y2="208" xlink:href="#N"><stop offset=".229" stop-color="#5f0147"/><stop offset=".536" stop-color="#e826c5"/><stop offset=".786" stop-color="#ffd4f6"/></linearGradient><linearGradient id="H" x1="44.5" y1="224.5" x2="189.5" y2="83" xlink:href="#N"><stop stop-color="#e826c5"/><stop offset=".5" stop-color="#ffd5f6"/><stop offset="1" stop-color="#5f0147"/></linearGradient><linearGradient id="I" x1="172" y1="138" x2="60.5" y2="249.5" xlink:href="#N"><stop stop-color="#e826c5"/><stop offset=".51" stop-color="#ffd4f6"/><stop offset="1" stop-color="#5f0147"/></linearGradient><linearGradient id="J" x1="100.5" y1="209" x2="209" y2="101.5" xlink:href="#N"><stop stop-color="#5f0147"/><stop offset=".597" stop-color="#ffd4f6"/><stop offset="1" stop-color="#c538ab"/></linearGradient><path id="K" d="M128.444 138h-24.888c-1.964 0-3.556 1.592-3.556 3.556v24.888c0 1.964 1.592 3.556 3.556 3.556h24.888c1.964 0 3.556-1.592 3.556-3.556v-24.888c0-1.964-1.592-3.556-3.556-3.556z"/><path id="L" d="M128.444 136.5h-24.888c-2.793 0-5.056 2.263-5.056 5.056v24.888c0 2.793 2.263 5.056 5.056 5.056h24.888c2.793 0 5.056-2.263 5.056-5.056v-24.888c0-2.793-2.263-5.056-5.056-5.056z"/><path id="M" d="M103.556 140h24.888c.86 0 1.556.696 1.556 1.556v24.888c0 .86-.696 1.556-1.556 1.556h-24.888c-.86 0-1.556-.696-1.556-1.556v-24.888c0-.86.696-1.556 1.556-1.556z"/><linearGradient id="N" gradientUnits="userSpaceOnUse"/></defs></svg>